<svg width="16" height="17" viewBox="0 0 16 17" fill="none" xmlns="http://www.w3.org/2000/svg">
<path d="M9.15333 2.83977L10.3267 5.18643C10.4867 5.5131 10.9133 5.82643 11.2733 5.88643L13.4 6.23977C14.76 6.46643 15.08 7.4531 14.1 8.42643L12.4467 10.0798C12.1667 10.3598 12.0133 10.8998 12.1 11.2864L12.5733 13.3331C12.9467 14.9531 12.0867 15.5798 10.6533 14.7331L8.66 13.5531C8.3 13.3398 7.70667 13.3398 7.34 13.5531L5.34667 14.7331C3.92 15.5798 3.05333 14.9464 3.42667 13.3331L3.9 11.2864C3.98667 10.8998 3.83333 10.3598 3.55333 10.0798L1.9 8.42643C0.926667 7.4531 1.24 6.46643 2.6 6.23977L4.72667 5.88643C5.08 5.82643 5.50667 5.5131 5.66667 5.18643L6.84 2.83977C7.48 1.56643 8.52 1.56643 9.15333 2.83977Z" stroke="#292D32" stroke-width="1.5" stroke-linecap="round" stroke-linejoin="round"/>
</svg>
